<?xml version="1.0" standalone="no"?>
<!DOCTYPE svg PUBLIC "-//W3C//DTD SVG 1.1//EN" "http://www.w3.org/Graphics/SVG/1.1/DTD/svg11.dtd" >
<!--
2013-9-30: Created.
-->
<svg>
<metadata>
Created by iconfont
</metadata>
<defs>

<font id="iconfont" horiz-adv-x="1024" >
  <font-face
    font-family="iconfont"
    font-weight="500"
    font-stretch="normal"
    units-per-em="1024"
    ascent="896"
    descent="-128"
  />
    <missing-glyph />
    
    <glyph glyph-name="iconfont15" unicode="&#58893;" d="M207.166293-19.007521 207.166293-19.007521c6.864338-6.864338 17.992793-6.864338 24.857131 0l267.546475 267.546475c6.864338 6.864338 17.992793 6.864338 24.857131 0l267.548522-267.547499c6.864338-6.864338 17.992793-6.864338 24.857131 0l0.002047 0.002047c6.864338 6.864338 6.864338 17.992793 0 24.857131l-292.4077 292.403606c-6.864338 6.864338-17.992793 6.864338-24.857131 0L207.166293 5.84961C200.301955-1.013705 200.301955-12.143183 207.166293-19.007521zM207.166293 301.747807 207.166293 301.747807c6.864338-6.864338 17.992793-6.864338 24.857131 0l267.546475 267.546475c6.864338 6.864338 17.992793 6.864338 24.857131 0l267.548522-267.547499c6.864338-6.864338 17.992793-6.864338 24.857131 0l0.002047 0.002047c6.864338 6.864338 6.864338 17.992793 0 24.857131l-292.4077 292.403606c-6.864338 6.864338-17.992793 6.864338-24.857131 0L207.166293 326.603915C200.301955 319.7406 200.301955 308.611122 207.166293 301.747807zM511.998977 523.585241"  horiz-adv-x="1024" />

    
    <glyph glyph-name="sheying" unicode="&#58900;" d="M845.8967 593.5685l-19.980288 0c-24.0906 43.8804-60.4027 83.6229-98.4033 83.6229L424.598528 677.1914c-37.973 0-74.3127-39.7425-98.4033-83.6229l-93.530112 0 0 27.874304c0 15.4071-12.4948 27.8743-27.8753 27.8743-15.4061 0-27.8743-12.4672-27.8743-27.8743l0-27.874304c-61.4912 0-111.4962-50.005-111.4962-111.4972l0-445.98784c0-61.4912 50.005-111.4972 111.4962-111.4972l668.980224 0c61.4646 0 111.4972 50.006 111.4972 111.4972L957.39294 482.071296C957.3939 543.5635 907.3613 593.5685 845.8967 593.5685zM424.5985 621.4428l302.91456 0c8.0302 0 20.4687-11.5149 32.7465-27.8743L391.87968 593.5685C404.1564 609.9279 416.596 621.4428 424.5985 621.4428zM901.6453 36.0835c0-30.7333-25.0163-55.7476-55.7486-55.7476L176.91648-19.6641c-30.7589 0-55.7476 25.0153-55.7476 55.7476l0 306.61632 160.44032 0c-8.4388-24.3354-13.2844-50.3306-13.2844-77.4963 0-130.6337 106.2973-236.9044 236.9577-236.9044 130.6327 0 236.9044 106.2697 236.9044 236.9044 0 27.1657-4.8179 53.161-13.2844 77.4963L901.645312 342.69982 901.645312 36.083456zM324.0724 265.2035c0 99.927 81.281 181.1814 181.2091 181.1814 99.9014 0 181.1548-81.2544 181.1548-181.1814 0-99.9025-81.2544-181.1558-181.1548-181.1558C405.3545 84.0476 324.0724 165.302 324.0724 265.2035zM901.6453 398.4484 701.026304 398.4484c-42.6813 62.5541-114.4904 103.7117-195.7448 103.7117-81.281 0-153.0624-41.1576-195.7724-103.7117L121.167872 398.4484l0 83.622912c0 30.7599 24.9887 55.7486 55.7476 55.7486l668.980224 0c30.7333 0 55.7486-24.9887 55.7486-55.7486L901.644296 398.448384z"  horiz-adv-x="1024" />

    
    <glyph glyph-name="xihuan" unicode="&#58913;" d="M1044.701867 455.4432c0-55.517867-10.888533-109.7728-32.375467-161.262933-18.858667-45.243733-46.574933-89.821867-82.346667-132.522667-66.935467-79.803733-153.105067-143.291733-228.573867-194.935467-10.1888-6.929067-24.064-4.334933-31.0272 5.8368-6.946133 10.171733-4.352 24.064 5.853867 30.993067 72.925867 49.937067 156.091733 111.138133 219.511467 186.794667 70.1952 83.729067 104.328533 170.4448 104.328533 265.079467 0 135.509333-110.250667 245.76-245.76 245.76-82.4832 0-159.061333-41.130667-204.834133-110.045867l-18.5856-28.0064-18.5856 28.0064c-45.7728 68.9152-122.333867 110.045867-204.834133 110.045867-135.492267 0-245.742933-110.2336-245.742933-245.76 0-235.3152 215.739733-379.7504 373.248-485.188267 43.605333-29.166933 81.237333-54.3744 110.216533-78.5408 9.472-7.901867 10.752-21.9648 2.850133-31.4368-4.4032-5.307733-10.769067-8.0384-17.169067-8.0384-5.051733 0-10.103467 1.706667-14.267733 5.205333-27.204267 22.6304-63.914667 47.240533-106.4448 75.707733-79.274667 53.026133-177.885867 119.074133-255.470933 202.632533-43.178667 46.506667-75.264 93.0304-98.1504 142.2848C30.344533 334.474667 17.066667 394.1568 17.066667 455.4432c0 77.568 30.225067 150.493867 85.060267 205.346133 54.869333 54.852267 127.761067 85.060267 205.329067 85.060267 87.057067 0 168.482133-38.741333 223.419733-104.977067 54.9376 66.235733 136.3968 104.977067 223.419733 104.977067 77.568 0 150.493867-30.208 205.329067-85.060267C1014.4768 605.937067 1044.701867 533.028267 1044.701867 455.4432L1044.701867 455.4432zM1044.701867 455.4432"  horiz-adv-x="1045" />

    
    <glyph glyph-name="zuopin" unicode="&#58922;" d="M342.325599 552.355359m-113.203248 0a110.625 110.625 0 1 0 226.406496 0 110.625 110.625 0 1 0-226.406496 0ZM680.538531 610.038106c-113.566522-2.740414-164.007331-392.444067-225.009683-394.778228-40.012296-0.910743-73.275887 115.957988-113.203248 113.198132-70.787206-4.89345-171.177638-226.396263-171.177638-226.396263l680.602999 0C851.750961 102.061746 814.512848 613.27073 680.538531 610.038106zM907.353326 836.815039 114.927519 836.815039C52.40658 836.815039 1.723248 786.177755 1.723248 723.713099l0-679.425174c0-62.464657 50.683333-113.101941 113.203248-113.101941l792.425807 0c62.520939 0 113.203248 50.637284 113.203248 113.101941L1020.555551 723.713099C1020.556575 786.177755 969.874265 836.815039 907.353326 836.815039zM907.353326 44.389232 114.927519 44.389232 114.927519 723.611791l792.425807 0L907.353326 44.389232z"  horiz-adv-x="1024" />

    
    <glyph glyph-name="pinglun" unicode="&#58887;" d="M281.4976 451.7888m-71.68 0a70 70 0 1 0 143.36 0 70 70 0 1 0-143.36 0ZM512 451.7888m-71.68 0a70 70 0 1 0 143.36 0 70 70 0 1 0-143.36 0ZM742.4 451.7888m-71.68 0a70 70 0 1 0 143.36 0 70 70 0 1 0-143.36 0ZM512 835.7888c-271.4624 0-491.52-171.9296-491.52-384 0-116.736 66.6624-221.184 171.7248-291.6352l37.6832-202.752c0.4096-2.2528 1.1264-4.4032 1.9456-6.4512 0 0 0 0 0-0.1024 0.2048-0.4096 0.4096-0.8192 0.6144-1.3312 0-0.1024 0.1024-0.1024 0.1024-0.2048 0.2048-0.4096 0.4096-0.8192 0.6144-1.1264 0-0.1024 0.1024-0.2048 0.2048-0.3072 0.2048-0.3072 0.4096-0.7168 0.6144-1.024 0.1024-0.1024 0.2048-0.3072 0.2048-0.4096 0.2048-0.3072 0.4096-0.6144 0.512-0.8192 0.1024-0.1024 0.1024-0.2048 0.2048-0.2048l0 0c0.1024-0.1024 0.1024-0.2048 0.2048-0.3072 0.1024-0.2048 0.3072-0.3072 0.4096-0.512 0.2048-0.3072 0.4096-0.6144 0.7168-0.9216 0 0 0.1024-0.1024 0.1024-0.1024 3.1744-3.8912 7.168-6.8608 11.5712-8.8064 0.1024 0 0.2048-0.1024 0.3072-0.1024 0.3072-0.1024 0.6144-0.2048 0.9216-0.4096 4.4032-1.7408 9.3184-2.4576 14.2336-1.8432 0.1024 0 0.2048 0 0.3072 0 0.3072 0 0.6144 0.1024 0.9216 0.1024 0.3072 0 0.512 0.1024 0.8192 0.1024 0.1024 0 0.2048 0 0.3072 0 0.1024 0 0.1024 0 0.2048 0 0.4096 0.1024 0.8192 0.2048 1.2288 0.3072 0 0 0.1024 0 0.1024 0 3.584 0.8192 7.168 2.3552 10.3424 4.608l189.7472 131.6864c14.6432-1.024 29.5936-1.536 44.544-1.536 271.4624 0 491.52 171.9296 491.52 384C1003.52 663.8592 783.4624 835.7888 512 835.7888zM821.6576 228.6592c-39.5264-30.9248-85.9136-55.296-137.728-72.3968-54.3744-17.92-112.2304-27.0336-172.032-27.0336-16.6912 0-33.28 0.7168-49.664 2.1504 0 0 0 0 0 0-7.168 0.8192-14.6432-0.8192-20.992-5.2224l-159.6416-110.7968-31.4368 169.0624c-1.6384 9.0112-7.168 16.2816-14.4384 20.6848 0 0 0 0 0 0-11.6736 7.3728-22.8352 15.2576-33.5872 23.552-38.4 30.0032-68.4032 64.6144-89.088 102.912-20.6848 38.2976-31.232 78.7456-31.232 120.2176s10.5472 81.92 31.232 120.2176c20.6848 38.2976 50.688 72.9088 89.088 102.912 39.5264 30.9248 85.9136 55.296 137.728 72.3968 54.3744 17.92 112.2304 27.0336 172.032 27.0336s117.6576-9.1136 172.032-27.0336c51.8144-17.1008 98.0992-41.472 137.728-72.3968 38.4-30.0032 68.4032-64.6144 89.088-102.912 20.6848-38.2976 31.232-78.7456 31.232-120.2176s-10.5472-81.92-31.232-120.2176C890.1632 293.376 860.16 258.6624 821.6576 228.6592z"  horiz-adv-x="1024" />

    
    <glyph glyph-name="shezhi" unicode="&#58957;" d="M510.464 540.672c-97.28 0-176.64-79.36-176.64-176.64s79.36-176.64 176.64-176.64c30.208 0 60.416 7.68 86.528 22.528 8.704 5.12 12.288 16.384 7.168 25.088-5.12 8.704-16.384 12.288-25.088 7.168-20.48-11.776-44.544-17.92-68.096-17.92-76.8 0-139.264 62.464-139.264 139.264s62.464 139.264 139.264 139.264S650.24 440.32 650.24 363.52c0-24.064-6.144-47.616-17.92-68.608-5.12-8.704-2.048-20.48 7.168-25.088 8.704-5.12 20.48-2.048 25.088 7.168 14.848 26.112 23.04 56.32 23.04 86.528-0.512 97.792-79.872 177.152-177.152 177.152z m413.696-93.184l-125.44 20.48c-2.56 7.168-5.632 14.848-9.216 22.016l74.24 102.912c5.12 7.168 4.608 17.408-2.048 24.064L766.976 711.68c-6.656 6.656-16.384 7.168-24.064 2.048l-103.424-74.24c-7.68 3.584-15.36 6.656-23.04 9.216l-19.968 127.488c-1.536 9.216-9.216 15.872-18.432 15.872H444.416c-9.216 0-16.896-6.656-18.432-15.872l-19.968-127.488c-7.168-2.56-13.824-5.632-20.992-8.704L280.576 715.776c-7.168 5.632-17.408 4.608-24.064-2.048L161.792 619.52c-6.656-6.656-7.168-16.896-2.048-24.064L235.52 491.52c-3.584-8.192-7.168-15.872-10.24-24.064l-124.928-19.968c-9.216-1.536-15.872-9.216-15.872-18.432v-134.144c0-9.216 6.656-16.896 15.872-18.432l124.928-19.456c3.072-7.68 6.144-15.872 9.728-23.552l-74.24-102.4c-5.632-7.168-4.608-17.408 2.048-24.064l94.72-94.72c6.656-6.656 16.896-7.168 24.064-2.048l102.4 74.752c7.168-3.584 14.848-6.656 22.528-9.216l19.968-123.392c1.536-9.216 9.216-15.36 18.432-15.36H578.56c9.216 0 16.896 6.656 18.432 15.36l19.968 122.88c8.192 3.072 16.384 6.656 24.576 10.24l100.864-72.704c7.168-5.12 17.408-4.608 24.064 2.048l94.72 94.72c6.656 6.656 7.168 16.384 2.048 24.064L790.016 235.52c3.072 7.168 6.144 13.824 8.704 20.992l125.44 20.48c9.216 1.536 15.36 9.216 15.36 18.432V429.056c0 9.216-6.656 16.896-15.36 18.432z m-22.016-136.704l-120.832-19.456c-6.656-1.024-12.288-6.144-14.848-12.8-4.096-12.8-9.216-25.088-15.36-36.864-3.072-6.144-2.56-13.824 1.536-19.456l70.656-97.792-72.192-72.192-97.28 70.144c-5.632 4.096-13.312 4.608-19.456 1.536-12.8-6.656-26.624-12.288-39.936-16.896-6.656-2.048-11.264-7.68-12.8-14.848l-19.456-118.272h-102.4L440.32 92.672c-1.024 6.656-6.144 12.288-12.8 14.848-13.312 4.096-26.112 9.728-38.4 15.872-6.144 3.072-13.824 2.56-19.456-1.536l-98.304-71.68-71.68 72.192 71.68 98.816c4.096 5.632 4.608 13.312 1.536 19.456-6.656 12.8-12.288 26.112-16.384 39.424-2.048 6.656-7.68 11.776-14.848 12.8l-120.32 18.944v102.4l120.32 18.944c7.168 1.024 12.8 6.144 14.848 12.8 4.608 13.824 10.24 27.136 16.896 39.936 3.072 6.144 2.56 13.824-1.536 19.456L199.168 604.16 271.36 676.352l100.864-73.216c5.632-4.096 13.312-4.608 19.456-1.536 11.776 6.144 24.576 11.264 36.864 15.36 6.656 2.048 11.264 7.68 12.8 14.848l19.456 122.88h102.4l19.456-122.368c1.024-7.168 6.144-12.8 12.8-14.848 13.312-4.096 26.112-9.728 38.4-15.872 6.144-3.072 13.824-2.56 19.456 1.536l99.328 71.68 71.68-72.704-71.68-99.328c-4.096-5.632-4.608-13.312-1.536-19.456 6.144-12.288 11.776-25.088 15.872-37.888 2.048-6.656 7.68-11.264 14.848-12.8l120.832-19.456-0.512-102.4z"  horiz-adv-x="1024" />

    
    <glyph glyph-name="down" unicode="&#58886;" d="M439.058-123.726h126.914v676.86h126.914c16.246 0 39.258-3.977 55.537 12.679 16.247 16.654 16.247 43.676 0 60.33l-204.885 253.422c-8.701 8.905-20.19 12.679-31.541 12.1-11.352 0.578-22.84-3.195-31.509-12.066l-204.885-253.456c-16.247-16.654-16.247-43.676 0-60.33s48.061-12.679 78.854-12.679h84.6v-676.86z"  horiz-adv-x="1024" />

    
    <glyph glyph-name="tianjiawenben" unicode="&#58968;" d="M801.213449 52.75476c0-16.755616-13.497409-30.320563-30.084179-30.320562H134.111952c-16.553001 0-30.051433 13.564947-30.051433 30.320562v551.193651c0 16.720823 13.498432 30.318516 30.051433 30.318516h465.171462v40.392966H134.111952c-38.613436 0-70.107731-31.729655-70.107731-70.644967v-551.193651c0-38.983873 31.494295-70.64599 70.107731-70.64599h637.016295c38.680974 0 70.108754 31.729655 70.108754 70.64599l-0.671289 396.168902H800.474622l0.738827-396.235417z m-0.772596 462.315414h40.393989V790.600485h-40.393989v-275.530311zM682.419879 632.186546h275.529287V672.578488H682.419879v-40.391942z m-403.658479-96.333023h348.189144v-35.961026H475.319078v-407.889851h-45.295626V499.993804H278.290679v35.927258h0.470721v-0.067539z"  horiz-adv-x="1024" />

    
    <glyph glyph-name="liaotian" unicode="&#58891;" d="M485.734 819.14c-235.218 0-425.578-165.593-425.578-369.859 0-125.328 72.735-236.765 182.61-304.828v-114.531c0-15.469 10.828-24.75 23.218-24.75 4.641 0 9.297 1.531 12.375 3.094l116.063 77.375c29.422-6.188 58.812-7.75 89.765-7.75 235.22 0 425.563 165.593 425.563 369.859 1.566 205.797-188.778 371.39-424.016 371.39z m0-679.346c-26.312 0-52.625 3.094-78.921 7.75l-12.391 3.094c-7.735 1.53-15.469 0-23.219-4.657l-10.812-7.718-55.72-37.157V161.45c0 10.844-6.187 21.688-15.468 26.313l-15.484 9.28C177.766 254.326 120.516 348.7 120.516 447.748c0 170.219 162.5 307.937 363.671 307.937 201.188 0 363.657-137.718 363.657-307.937 1.565-168.672-162.466-307.953-362.11-307.953zM244.313 438.469c0-28.219 22.859-51.078 51.078-51.078 28.203 0 51.062 22.859 51.062 51.078 0 28.172-22.86 51.047-51.062 51.047-28.22 0-51.079-22.875-51.079-51.047z m193.453 0c0-28.219 22.859-51.078 51.062-51.078s51.078 22.859 51.078 51.078c0 28.172-22.875 51.047-51.078 51.047s-51.062-22.875-51.062-51.047z m187.234 0c0-28.219 22.875-51.078 51.063-51.078 28.218 0 51.093 22.859 51.093 51.078 0 28.172-22.875 51.047-51.093 51.047-28.188 0-51.063-22.875-51.063-51.047z m293.128-79.957c-0.912 1.152-1.872 2.256-2.816 3.408-6.656-25.28-16.16-49.632-28.128-72.752 0.496-1.12 1.12-2.192 1.6-3.312 8.096-18.624 12.496-38.752 12.496-59.744 0-55.664-32.16-108.688-86.064-140.848l-8.688-5.216c-5.216-2.592-8.72-8.688-8.72-14.784V31.36l-31.28 20.88-6.096 4.336c-4.336 2.592-8.688 3.472-13.024 2.592l-6.944-1.712c-14.816-2.656-29.6-4.336-44.336-4.336-35.44 0-68.816 7.84-97.936 21.504-28.912-6.752-58.912-11.008-89.808-12.464 48.4-41.712 115.008-67.504 188.592-67.504 19.504 0 38 0.976 56.496 4.848l73.056-48.688c1.936-0.976 4.848-1.936 7.744-1.936 7.808 0 14.624 5.84 14.624 15.568v72.096c69.152 42.848 114.944 112.976 114.944 191.84 0 48.192-16.848 92.976-45.712 130.128z"  horiz-adv-x="1024" />

    
    <glyph glyph-name="huadong" unicode="&#58912;" d="M109.924175 788.732958c200.285178 45.788618 409.53596 39.064415 607.099437-20.332708 11.687305-3.522201 26.896811 3.522201 30.419012 14.248906 3.522201 10.726704-4.963102 25.45591-17.290807 29.138211C525.063637 873.425891 307.647752 880.470294 99.677771 832.920575c-3.842402 16.490306-7.684803 33.140713-11.527205 49.63102C86.549565 889.275797 83.667764 895.0394 75.822861 895.8399c-7.844903 0.8005-12.808005-1.921201-17.130706-8.005003C38.359447 859.337086 19.627739 830.519074 2.497033 801.220763c-4.963102-8.645403-1.601001-18.731707 7.364603-22.894309 30.579112-14.088806 60.197624-29.298311 88.375234-45.628518 6.083802-3.522201 10.886804-3.842402 16.490306 0.3202 5.763602 4.002502 5.603502 10.406504 4.162602 17.130707-3.041901 12.808005-6.083802 25.61601-8.965603 38.584115m825.475922-332.36773c-9.445904 25.77611-36.502814 43.066917-67.402126 43.066917-8.805503 0-17.450907-1.440901-25.45591-4.322702-4.322702-1.601001-14.889306-7.044403-24.97561-14.729205-12.808005 28.177611-41.305816 46.589118-72.685428 46.589118-9.285804 0-18.411507-1.601001-27.377111-4.803002-17.290807-6.243902-31.539712-17.931207-40.985616-33.460913-19.852408 25.13571-52.672921 35.702314-83.412133 24.65541-20.012508-7.204503-35.542214-21.773609-43.867417-40.985616l-79.569731 195.322076c-12.808005 35.061914-43.066917 57.636023-76.84803 57.636022-9.125704 0-18.411507-1.601001-27.377111-4.963102-42.746717-15.529706-62.439024-61.478424-45.628517-107.427142L452.058008 274.811757c-6.884303-7.844903-16.970607-21.133208-28.177611-42.426516-38.904315-73.646029-11.367104-207.649781 90.296436-282.25641 72.685428-53.313321 139.767355-78.128831 211.011882-78.128831 41.786116 0 85.173233 8.325203 132.722952 25.61601 135.284553 48.990619 155.937461 132.883052 165.383364 214.534084 8.965604 78.609131-83.892433 333.48843-87.894934 344.215134m53.793621-340.372733c-8.965604-77.00813-25.77611-144.090056-142.969356-186.516573-43.867417-15.849906-83.412133-23.534709-121.035647-23.534709-64.360225 0-123.277048 22.093809-190.679175 71.564728-60.677924 44.507817-122.156348 159.779862-80.370231 239.029394 4.482802 8.485303 8.645403 15.529706 12.327705 20.973108l43.227017-110.469043c3.362101-8.805503 13.288305-13.128205 22.093808-9.766104 8.805503 3.362101 13.128205 13.288305 9.766104 21.933708L351.835369 625.110694c-10.406504 28.177611 0 54.273921 25.29581 63.399625 24.97561 8.965604 50.43152-5.123202 60.677924-32.980613L557.72405 361.265791c3.202001-8.005003 12.167605-12.327705 20.652908-9.926204 8.485303 2.401501 13.608505 10.886804 12.007504 19.372108l-9.445903 50.91182c-0.1601 0.9606-0.4803 1.921201-0.800501 2.721701-4.322702 11.687305-4.162602 24.015009 0.4803 34.741713 4.482802 10.566604 13.128205 18.411507 24.17511 22.414009 22.253909 8.005003 44.347717-4.482802 53.313321-28.978111l11.687304-32.020013c3.202001-8.805503 12.968105-13.448405 21.933709-10.086304 8.805503 3.202001 13.448405 12.968105 10.246404 21.773609v0.1601c-4.162602 11.367104-3.522201 23.694809 1.601001 34.581613 5.123202 11.046904 14.248906 19.372108 25.77611 23.37461 5.123202 1.761101 10.246404 2.721701 15.529706 2.721701 19.051907 0 36.342714-12.007505 42.906816-29.778612 0 0 23.054409-56.995622 28.017511-69.323327 5.123202-12.327705 13.128205-14.248906 21.613509-11.046904 8.485303 3.202001 11.527205 12.007505 7.684803 22.734208-3.842402 10.726704-14.889306 40.665416-14.889306 40.665416 5.283302 5.443402 16.330206 14.088806 24.015009 16.810507 4.162602 1.601001 8.805503 2.241401 13.608506 2.241401 16.330206 0 30.899312-8.485303 35.382113-20.813008 26.25641-71.244528 92.697936-269.768605 85.973734-328.525329"  horiz-adv-x="1024" />

    
    <glyph glyph-name="home" unicode="&#59133;" d="M512 841.6S195.2 569.6 19.2 422.4c-9.6-9.6-19.2-22.4-19.2-38.4 0-28.8 22.4-51.2 51.2-51.2h102.4v-355.2c0-28.8 22.4-51.2 51.2-51.2h153.6c28.8 0 51.2 22.4 51.2 51.2v204.8h204.8v-204.8c0-28.8 22.4-51.2 51.2-51.2h153.6c28.8 0 51.2 22.4 51.2 51.2V332.8h102.4c28.8 0 51.2 22.4 51.2 51.2 0 16-6.4 28.8-19.2 38.4C825.6 569.6 512 841.6 512 841.6z"  horiz-adv-x="1024" />

    
    <glyph glyph-name="wenben" unicode="&#58901;" d="M208.384 740.864h608.256l5.632-182.784h-25.6c-12.8 57.344-28.672 94.72-48.128 112.128-19.456 17.408-60.416 26.112-122.88 26.112h-59.904v-550.4c0-41.472 6.656-67.072 19.456-76.8 12.8-9.728 41.472-16.384 84.992-19.456v-19.968H357.376v19.968c45.568 3.584 73.728 10.752 84.992 22.528 11.264 11.264 16.896 40.448 16.896 86.528V696.32H398.848c-59.392 0-99.84-8.704-121.344-25.6s-37.888-54.784-48.64-112.64h-26.112l5.632 182.784z"  horiz-adv-x="1024" />

    
    <glyph glyph-name="xihuan1" unicode="&#59072;" d="M142.854569 515.192971h-0.382717c-12.246929 0.184195-22.202675 10.163477-21.819958 22.202675 0.569982 42.165332 18.950607 84.890412 49.005111 114.438379 37.340443 36.70497 87.889723 45.73974 112.974027 42.918485a21.951965 21.951965 0 0 0 19.529799-24.279986c-1.347694-12.050454-12.641925-20.523429-24.701588-19.200295-12.83533 1.499144-49.594535-4.143367-76.200496-30.307259-22.027689-21.644973-35.619242-53.074799-36.002982-84.129073-0.384763-12.048407-10.341532-21.642926-22.401196-21.642926z m797.064454 218.515782c-53.988612 52.515051-125.591393 81.307817-201.793936 81.307818-71.613014 0-140.346445-25.971511-193.381335-73.0262l-32.740682-28.792767-32.55137 28.792767c-53.222155 47.054689-121.964796 73.0262-193.567577 73.0262-76.202543 0-147.815557-28.985148-201.803146-81.307818C29.892821 680.820196 0.024559 610.614228 0.024559 535.704121s29.868261-145.114029 84.241637-198.005657l387.14334-368.337019c10.911514-10.5421 25.270547-16.376992 40.592511-16.376992 15.314801 0 29.871331 5.834892 40.397058 16.18461L939.918 337.699488c54.187133 52.698223 84.055394 123.094526 84.055394 198.005656 0.196475 74.716702-29.671787 145.115052-84.054371 198.003609z"  horiz-adv-x="1024" />

    
    <glyph glyph-name="tubiaolunkuo-" unicode="&#58902;" d="M1004.8 704h-192c-12.8 0-19.2 6.4-19.2 19.2s6.4 19.2 19.2 19.2h192c12.8 0 19.2-6.4 19.2-19.2s-6.4-19.2-19.2-19.2zM908.8 608c-12.8 0-19.2 6.4-19.2 19.2v192c0 12.8 6.4 19.2 19.2 19.2s19.2-6.4 19.2-19.2v-192c0-12.8-6.4-19.2-19.2-19.2zM224 384c-44.8 0-83.2 38.4-83.2 83.2s38.4 83.2 83.2 83.2 83.2-38.4 83.2-83.2S268.8 384 224 384z m0 128c-25.6 0-44.8-19.2-44.8-44.8s19.2-44.8 44.8-44.8 44.8 19.2 44.8 44.8-19.2 44.8-44.8 44.8zM780.8-64H147.2C64-64 0 0 0 83.20000000000005v512c0 83.2 64 147.2 147.2 147.2H704c12.8 0 19.2-6.4 19.2-19.2s-6.4-19.2-19.2-19.2H147.2C89.6 704 38.4 652.8 38.4 595.2v-512c0-57.6 51.2-108.8 108.8-108.8h633.6c57.6 0 108.8 51.2 108.8 108.8V492.8c-12.8 12.8-57.6 51.2-147.2 19.2-76.8-25.6-96-89.6-115.2-160-12.8-51.2-32-96-76.8-115.2-32-12.8-83.2-6.4-147.2 25.6-115.2 57.6-294.4-121.6-300.8-121.6-6.4-6.4-19.2-6.4-25.6 0s-6.4 19.2 0 25.6c6.4 6.4 204.8 198.4 339.2 134.4 57.6-32 96-38.4 121.6-32 25.6 12.8 38.4 51.2 51.2 96 19.2 70.4 44.8 153.6 140.8 185.6 134.4 44.8 192-38.4 192-44.8l6.4-12.8v-409.6c0-83.2-64-147.2-147.2-147.2z"  horiz-adv-x="1024" />

    
    <glyph glyph-name="fabu" unicode="&#60173;" d="M985.433124 788.031986c-18.60473-69.864184-195.804525-769.742179-203.357547-807.110251-5.325285-25.955138-17.944697-88.966241-57.08616-75.262124-11.396561 3.989871-20.50194 13.253862-30.003338 20.304441-11.504008 8.53642-22.989597 17.080004-35.013444 24.880667l-62.281486 40.408315-83.368756 54.089919L399.000901-75.369316l-2.741437-2.86935c-4.749164-4.970198-10.879792-9.750061-17.170055-12.589736a35.048237 35.048237 0 0 0-14.402011-3.123131c-4.092201 0-8.170077 0.997724-12.025894 2.309602-1.942235 0.661056-9.349949 5.166673-11.167341 6.488785-6.040576 4.394077-9.509585 10.543124-11.658528 17.605983-0.927115 3.157923-2.140757 9.995655-2.140756 10.597359 0 10.473539-1.266853 206.918653 0.187265 221.957161 0.77055 7.969509 3.507894 16.016789 8.452509 22.530133 5.623068 7.40669 445.846324 505.819231 450.478831 511.09028 0.988514 1.125637 2.469238 3.698229 3.848655 4.379751L138.691247 381.397732l171.994236-111.587447c15.817244-10.251481 20.986987-32.512485 11.544941-49.690726-9.44307-17.188474-29.91738-22.803355-45.734624-12.540618L102.030279 320.77605c-23.468504 15.226796-62.156642 28.870538-69.128426 59.470463-8.284687 36.358069 29.427216 49.354058 55.184856 61.680804 65.698305 31.441083 737.422076 364.517017 780.732488 386.202923 20.513196 10.270924 41.030485 20.586874 61.375859 31.176046 20.186761 10.507308 43.621497 11.488659 57.600882-9.081842 12.432147-18.304901 2.960425-42.205241-2.144849-61.373813l-0.217965-0.818645zM401.689127 146.294157v-114.774024l71.367421 74.707493c6.291287 6.584975 12.346189 12.415774 20.503986 16.742312 10.642384 5.644557 24.316825 6.018064 35.018561 0.349971 11.991102-6.351662 172.285878-114.586758 183.486988-121.853255l0.093121-0.060375 176.147836 698.681749-486.617913-553.793871z"  horiz-adv-x="1024" />

    
    <glyph glyph-name="zhaopian" unicode="&#58888;" d="M896 800H128C57.6 800 0 742.4 0 672v-576c0-70.4 57.6-128 128-128h768c70.4 0 128 57.6 128 128V672c0 70.4-57.6 128-128 128z m64-704c0-35.2-28.8-64-64-64H128c-35.2 0-64 28.8-64 64v57.6l291.2 291.2 310.4-310.4 160 160L960 160v-64z m0 153.6L825.6 384l-160-160-310.4 310.4L64 243.2V672c0 35.2 28.8 64 64 64h768c35.2 0 64-28.8 64-64v-422.4zM768 681.6c-60.8 0-112-51.2-112-112s51.2-112 112-112 112 51.2 112 112-51.2 112-112 112z m0-160c-25.6 0-48 22.4-48 48s22.4 48 48 48 48-22.4 48-48-22.4-48-48-48z"  horiz-adv-x="1024" />

    
    <glyph glyph-name="xia" unicode="&#59664;" d="M921.6 345.2928L512-83.5584 102.4 345.2928h241.152V894.464h337.1008v-549.1712z"  horiz-adv-x="1024" />

    
    <glyph glyph-name="pinglun1" unicode="&#59704;" d="M779.008 777.984H270.016q-32.992 0-60.512-17.504T166.496 714.464t-15.488-61.504v-330.016q0-48.992 33.504-80t83.488-31.008h47.008v-140.992L480 211.936h307.008q50.016 0 84 31.008t34.016 80V652.96q0 50.016-38.016 87.488t-88 37.504z m79.008-454.976q0-31.008-20.992-47.488t-50.016-16.512H463.008l-12.992-11.008-87.008-75.008v86.016H268q-18.016 0-33.504 6.496t-26.016 21.504-10.496 36V653.024q0 31.008 21.504 54.496t50.496 23.488h508.992q15.008 0 29.504-6.496t24.992-17.504 17.504-24.992 7.008-28.992v-330.016zM292 495.008q0 20 14.016 33.504t32.992 13.504q6.016 0 12.512-1.504t11.488-4.512 9.504-7.488 7.488-9.504 4.512-11.488 1.504-12.512q0-20-13.504-33.504T339.52 448t-33.504 13.504-14.016 33.504z m188 0q0 20 14.016 33.504t34.016 13.504q12 0 23.008-6.016t17.504-16.992 6.496-24q0-20-14.016-33.504T527.52 448t-33.504 13.504T480 495.008z m188.992 0q0 20 14.016 33.504t32.992 13.504q12.992 0 24-6.016t16.992-16.992 6.016-24q0-20-13.504-33.504T716 448q-8 0-15.008 2.496t-12.992 6.496-10.016 10.016-6.496 12.992-2.496 15.008z"  horiz-adv-x="1024" />

    
    <glyph glyph-name="pinglun8" unicode="&#58880;" d="M949.57 683.326l-41.8-41.517-139.205 138.348 41.801 41.459c15.34 15.283 39.523 16.084 53.893 1.768l87.024-86.454c14.427-14.313 13.628-38.324-1.712-53.604z m-369.197-366.92L441.17 454.756l306.239 304.299 139.205-138.349-306.24-304.3z m-19.388-19.275l-194.863-55.315 55.66 193.667L560.984 297.13zM236.552 717.88c-48.133 0-87.082-38.949-87.082-87.024v-522.372c0-48.063 38.963-87.026 87.026-87.026h522.486c48.064 0 87.028 38.963 87.028 87.028V456.752l87.08 87.028V79.46000000000004c0-80.125-64.955-145.078-145.079-145.078H207.468c-80.125 0-145.078 64.954-145.078 145.078V659.885c0 80.125 64.954 145.079 145.078 145.079h464.436L584.82 717.88H236.55v0.001z"  horiz-adv-x="1024" />

    
    <glyph glyph-name="xiugai" unicode="&#58911;" d="M785.58642379 515.88108642l-189.57606811 184.8471198-405.15164288-404.71926707-70.61447363-258.30569403v-0.42719763l257.87072917 71.73683832z m-30.8954504 343.19115758l-101.54358202-101.37658659 190.18320655-184.15971999 98.53248601 98.44963556c51.71939303 51.63265897 51.71939303 135.45012844 0 187.08408193-51.63136443 51.6339535-135.53945157 51.6339535-187.17211054 0.00258909zM50.16440983-7.157684150000023h930.48821887v-122.64067223h-930.48821887z"  horiz-adv-x="1024" />

    
    <glyph glyph-name="liaotian1" unicode="&#59186;" d="M857.4 2.8c-30.6 0-78.7 10.5-121.9 40l-8 5.5-9.3-2.5c-31.9-8.7-64.4-13-96.7-13-45.8 0-90.1 8.2-131.7 24.4-17.7 6.9-34.5 15-50.5 24.5 214.7 2.4 388.6 160.2 388.6 353.9 0 47.5-10.5 94-30.8 137.2 37-20.7 69.2-47.9 94.7-80.4 38.7-49.2 59.2-106.9 59.2-167 0-43.7-10.4-85.5-31-124.3-20.7-39-50.4-72.9-88.5-100.8l-16.6-12.2 11.9-16.8c15.6-22.1 33.6-39.2 53.3-50.8 7-4.1 10.3-8.1 9.8-9.8-0.7-2.6-9.6-7.9-32.5-7.9zM423.9 766C230.2 766 72.5 626.1 72.5 454c0-46.6 11.1-91.2 33.1-132.6 22-41.6 53.8-77.7 94.4-107.5l16.6-12.2-11.8-16.7c-16.5-23.3-35.4-41.4-56.3-53.6-7.3-4.3-11.7-9-11-11.8 1-3.8 11.4-9.4 35.8-9.4 32.7 0 84.1 11.2 130.2 42.7l8 5.5 9.3-2.5c34-9.2 68.6-13.9 103-13.9 193.8 0 351.5 140 351.5 312S617.7 766 423.9 766zM231.3 390.7c-33.6 0-60.8 27.2-60.8 60.8s27.2 60.8 60.8 60.8 60.8-27.2 60.8-60.8-27.2-60.8-60.8-60.8z m194.8 0c-33.6 0-60.8 27.2-60.8 60.8s27.2 60.8 60.8 60.8 60.8-27.2 60.8-60.8-27.2-60.8-60.8-60.8z m191.6 0c-33.6 0-60.8 27.2-60.8 60.8s27.2 60.8 60.8 60.8c33.6 0 60.8-27.2 60.8-60.8s-27.2-60.8-60.8-60.8z"  horiz-adv-x="1024" />

    
    <glyph glyph-name="wenben1" unicode="&#58980;" d="M954.181818-128h-884.363636c-37.236364 0-69.818182 32.581818-69.818182 69.818182v884.363636c0 37.236364 32.581818 69.818182 69.818182 69.818182h884.363636c37.236364 0 69.818182-32.581818 69.818182-69.818182v-884.363636c0-37.236364-32.581818-69.818182-69.818182-69.818182z m-884.363636 977.454545c-13.963636 0-23.272727-9.309091-23.272727-23.272727v-884.363636c0-13.963636 9.309091-23.272727 23.272727-23.272727h884.363636c13.963636 0 23.272727 9.309091 23.272727 23.272727v884.363636c0 13.963636-9.309091 23.272727-23.272727 23.272727h-884.363636zM549.236364 565.527273v-437.527273h-74.472728v437.527273h-218.763636v74.472727h512v-74.472727h-218.763636z"  horiz-adv-x="1024" />

    
    <glyph glyph-name="tianjia" unicode="&#58936;" d="M510.00008279229627-101.95700940799986c-267.6644868551111 0-484.6498137884444 217.0290540088889-484.6498137884444 484.7280613451851S242.3355959371853 867.4830035626667 510.00008279229627 867.4830035626667c267.6667878968889 0 484.6521148302221-217.01294428918519 484.6521148302221-484.7119516254815S777.6668706891851-101.95700940799986 510.00008279229627-101.95700940799986zM510.00008279229627 806.8963101961482c-234.20901421511107 0-424.06772371911114-189.88632564622225-424.06772371911114-424.12525825896296S275.7910673635556-41.356508577185195 510.00008279229627-41.356508577185195s424.06772371911114 189.888626688 424.06772371911114 424.1275605143704S744.2090970074075 806.8963101961482 510.00008279229627 806.8963101961482zM691.7440495312592 352.47080152177784L540.2934288687408 352.47080152177784l0-151.4736359348148c0-16.721982501925925-13.56215819377778-30.28874399288889-30.291045034666663-30.28874399288889-16.728886840888887 0-30.28874399288889 13.566761490962962-30.28874399288889 30.28874399288889l0 151.4736359348148-151.45522395970372 0c-16.728886840888887 0-30.291045034666663 13.564459235555553-30.291045034666663 30.300250415407405 0 16.724283543703702 13.564459235555553 30.28874399288889 30.291045034666663 30.28874399288889l151.45522395970372 0 0 151.48054027377776c0 16.721982501925925 13.56215819377778 30.281839653925932 30.28874399288889 30.281839653925932 16.731187882666667 0 30.291045034666663-13.557554896592592 30.291045034666663-30.281839653925932l0-151.48054027377776 151.45062187614815 0c16.731187882666667 0 30.291045034666663-13.564459235555553 30.291045034666663-30.28874399288889C722.0350945659259 366.0352607573333 708.475237413926 352.47080152177784 691.7440495312592 352.47080152177784z"  horiz-adv-x="1024" />

    
    <glyph glyph-name="shanchu" unicode="&#58956;" d="M519.68 896C415.232 896 330.24 813.056 326.656 709.12H82.944c-27.136 0-49.152-22.016-49.152-49.152s22.016-49.152 49.152-49.152h54.272v-550.912C137.216-43.52 207.36-128 293.888-128h441.344c86.528 0 156.672 83.968 156.672 187.904v550.4h49.152c27.136 0 49.152 22.016 49.152 49.152s-22.016 49.152-49.152 49.152H712.192C709.12 813.056 624.128 896 519.68 896zM418.816 709.12c3.584 53.248 47.104 94.72 100.864 94.72s97.28-41.472 100.352-94.72H418.816zM293.888-35.84c-30.72 0-64.512 39.424-64.512 95.744v550.4h570.368v-550.912c0-56.32-33.792-95.744-64.512-95.744H293.888v0.512zM359.936 82.432c22.528 0 40.96 22.528 40.96 50.688V422.4c0 28.16-18.432 50.688-40.96 50.688s-40.96-22.528-40.96-50.688v-289.28c0-28.16 17.92-50.688 40.96-50.688z m148.48 0c22.528 0 40.96 22.528 40.96 50.688V422.4c0 28.16-18.432 50.688-40.96 50.688s-40.96-22.528-40.96-50.688v-289.28c0-28.16 18.432-50.688 40.96-50.688z m156.16 0c22.528 0 40.96 22.528 40.96 50.688V422.4c0 28.16-18.432 50.688-40.96 50.688s-40.96-22.528-40.96-50.688v-289.28c0-28.16 17.92-50.688 40.96-50.688z"  horiz-adv-x="1024" />

    
    <glyph glyph-name="fensi" unicode="&#58884;" d="M850.1 290.9c-24.5 0-48.4-8.5-67.3-24.1-10.2-8.4-18.7-18.6-25.1-29.9-6.4 11.4-14.9 21.6-25.1 29.9-18.9 15.5-42.8 24.1-67.3 24.1-58.5 0-106.1-47.6-106.1-106.1 0-26.8 10.1-52.4 28.4-72.1 0.3-0.4 0.6-0.7 0.9-1l1.5-1.5 0.6-0.6 160.9-165.7c2.2-2.3 5.2-3.5 8.4-3.5h0.1c3.2 0 6.2 1.4 8.4 3.7l148 157.9c25.4 20.3 40 50.4 40 82.9-0.2 58.4-47.8 106-106.3 106z m50.6-171.6c-0.9-0.7-1.7-1.5-2.3-2.4l-138.7-148-152.4 157c0 0.1-0.1 0.1-0.1 0.2l-1 1c-0.2 0.3-0.4 0.5-0.7 0.8-14.7 15.5-22.8 35.7-22.8 56.9 0 45.7 37.1 82.8 82.8 82.8 38.9 0 73-27.6 81-65.7 1.1-5.4 5.9-9.3 11.4-9.3s10.3 3.9 11.4 9.3c8 38.1 42.1 65.7 81 65.7 45.7 0 82.8-37.1 82.8-82.8-0.2-25.8-11.9-49.6-32.4-65.5zM444 294.2v0.2c3.4-0.1 6.8-0.2 10.2-0.2 71.8 0 139.4 28 190.2 78.8 50.8 50.8 78.8 118.3 78.8 190.2s-28 139.4-78.8 190.2C593.5 804.2 526 832.1 454.1 832.1s-139.4-28-190.2-78.8c-50.8-50.8-78.8-118.3-78.8-190.2s28-139.4 78.8-190.2c29.1-29.1 63.8-50.7 101.6-63.9-21.8-4.8-43.1-11.5-63.9-20.3-43.5-18.4-82.6-44.8-116.2-78.3-33.6-33.6-59.9-72.7-78.3-116.2-19-45-28.7-92.9-28.7-142.2v-11.7H444v23.3H102c6.1 183.4 157.2 330.6 342 330.6z m-235.5 269c0 135.5 110.2 245.7 245.7 245.7s245.7-110.2 245.7-245.7-110.2-245.7-245.7-245.7-245.7 110.2-245.7 245.7zM495.8-36.3h47.5v-23.3h-47.5z"  horiz-adv-x="1024" />

    
    <glyph glyph-name="addition1" unicode="&#58881;" d="M510.00008279229627-101.95700940799986c-267.6644868551111 0-484.6498137884444 217.0290540088889-484.6498137884444 484.7280613451851S242.3355959371853 867.4830035626667 510.00008279229627 867.4830035626667c267.6667878968889 0 484.6521148302221-217.01294428918519 484.6521148302221-484.7119516254815S777.6668706891851-101.95700940799986 510.00008279229627-101.95700940799986zM510.00008279229627 806.8963101961482c-234.20901421511107 0-424.06772371911114-189.88632564622225-424.06772371911114-424.12525825896296S275.7910673635556-41.356508577185195 510.00008279229627-41.356508577185195s424.06772371911114 189.888626688 424.06772371911114 424.1275605143704S744.2090970074075 806.8963101961482 510.00008279229627 806.8963101961482zM691.7440495312592 352.47080152177784L540.2934288687408 352.47080152177784l0-151.4736359348148c0-16.721982501925925-13.56215819377778-30.28874399288889-30.291045034666663-30.28874399288889-16.728886840888887 0-30.28874399288889 13.566761490962962-30.28874399288889 30.28874399288889l0 151.4736359348148-151.45522395970372 0c-16.728886840888887 0-30.291045034666663 13.564459235555553-30.291045034666663 30.300250415407405 0 16.724283543703702 13.564459235555553 30.28874399288889 30.291045034666663 30.28874399288889l151.45522395970372 0 0 151.48054027377776c0 16.721982501925925 13.56215819377778 30.281839653925932 30.28874399288889 30.281839653925932 16.731187882666667 0 30.291045034666663-13.557554896592592 30.291045034666663-30.281839653925932l0-151.48054027377776 151.45062187614815 0c16.731187882666667 0 30.291045034666663-13.564459235555553 30.291045034666663-30.28874399288889C722.0350945659259 366.0352607573333 708.475237413926 352.47080152177784 691.7440495312592 352.47080152177784z"  horiz-adv-x="1024" />

    
    <glyph glyph-name="zuoyouhuadong" unicode="&#58898;" d="M410.001383 770.709028h-41.27916v-117.906747h41.27916v117.906747z m-250.39828-117.906747h82.480476v117.906747h-82.480476v-117.906747z m-16.900641-47.563839V817.080882l-142.702462-105.325227 142.702462-106.517213z m661.550293 163.897896h-41.658649v-117.905531h41.263348l0.395301 117.905531z m11.007614-216.16156a419.139527 419.139527 0 0 1-82.936593-46.775669c-23.199914-16.510204-104.565033-68.379784-121.075238-75.852798a191.549509 191.549509 0 0 1-55.418774-42.837254 398.164245 398.164245 0 0 0-51.892689-39.278329 104.331502 104.331502 0 0 1-12.57179-10.224309 29.87138 29.87138 0 0 1-4.726584 9.441005 32.234672 32.234672 0 0 1-13.366041 4.713205c2.765891 4.726584 5.906406 0 13.366041 10.22431 7.463284 10.22431 2.750079 15.712304 5.121885 20.044804a32.240754 32.240754 0 0 1 25.147229 9.426409 113.781021 113.781021 0 0 1 27.495924 24.373655 76.139847 76.139847 0 0 1 8.63824 22.402014c2.37059 16.496825-2.357211 25.148445-11.389535 27.89974-15.331599 4.713205-39.273463-16.90064-39.273463-16.90064a45.404887 45.404887 0 0 1-9.42641-2.750079 90.135937 90.135937 0 0 1-39.278329-5.108506c-7.459635-2.355994-21.612629-25.147228-35.766838-45.597064-14.15421-20.448619-39.273463-44.014643-42.44317-62.093888a560.302139 560.302139 0 0 1-4.332499-110.826602 730.257264 730.257264 0 0 1 19.256634-102.193228c3.928684-27.115219-3.5346-57.380684 0-78.551791 5.511105-64.060664 214.631441-99.500315 220.523251-91.566319 5.890594 7.935212 9.830225 5.89181 8.247805 11.78362-1.587286 5.89181 3.54433 6.675114 9.045704 17.674214 2.357211 3.925035 2.74643 13.760125 5.901541 18.867415 8.247804 13.758909 82.153288 82.148423 117.920127 120.651962a78.860735 78.860735 0 0 1 16.510204 27.129815c3.925035 9.421544 0 0 3.535816 15.707439a310.546071 310.546071 0 0 1 12.580304 52.263664 31.429474 31.429474 0 0 1-7.85372 25.161824 124.915131 124.915131 0 0 1 21.546948 51.817278 32.724845 32.724845 0 0 1-19.636123 29.091724 187.371481 187.371481 0 0 1 14.152994 39.278329c2.74643 11.782404-9.42641 25.931749-23.974705 39.273463a68.81279 68.81279 0 0 1-57.788148 5.10729c-19.071755-6.898916 49.921049 36.551359 66.037169 51.882958 5.121885 5.103641 30.269114 19.63734 47.563838 31.040255a100.078062 100.078062 0 0 1 26.34043 21.223409c5.89181 7.474231 9.032325 12.58152 7.853719 18.472114-7.069199 21.613845-17.683944 32.232239-44.014643 27.12495l0.379489-1.520389z m115.564133 99.433418h82.481692v117.906748h-82.481692v-117.906748z m-85.293803 0h55.812859v117.906748h-56.22154l0.408681-117.906748z m-573.899279 0h55.822589v117.906748H271.237335l0.394085-117.906748zM1030.272515 817.080882v-210.26975l142.293782 105.272926-142.293782 104.996824z m0 0"  horiz-adv-x="1173" />

    
    <glyph glyph-name="tianjiawenben1" unicode="&#58899;" d="M814.3-1.1000000000000227c-17.6 0-32.1 14.4-32.1 32.1V257.29999999999995c0 17.6 14.4 32.1 32.1 32.1 17.6 0 32.1-14.4 32.1-32.1v-226.4c0-17.6-14.5-32-32.1-32ZM959.6 144.10000000000002c0-17.6-14.4-32.1-32.1-32.1H701.1c-17.6 0-32.1 14.4-32.1 32.1 0 17.6 14.4 32.1 32.1 32.1h226.4c17.6 0 32.1-14.4 32.1-32.1ZM671.5 608.6H352.2c-9.6 0-16-3.2-22.3-9.6-6.4-6.4-9.6-12.8-9.6-22.3v-63.8c0-19.2 12.8-31.9 31.9-31.9 19.2 0 31.9 16 31.9 31.9v31.9h95.8v-319.2H448c-16 0-31.9-12.8-31.9-31.9 0-19.2 12.8-31.9 31.9-31.9h127.7c16 0 31.9 12.8 31.9 31.9 0 19.2-12.8 31.9-31.9 31.9h-31.9V544.8h95.8v-31.9c0-19.2 12.8-31.9 31.9-31.9 19.2 0 31.9 16 31.9 31.9v63.8c0 9.6-3.2 16-9.6 22.3-6.4 6.4-12.8 9.6-22.3 9.6ZM700 34c0 17.6-14.3 31.9-31.9 31.9H160.7c-19.2 0-31.9 16-31.9 31.9V672.4c0 16 12.8 31.9 31.9 31.9H863c19.2 0 31.9-16 31.9-31.9v-382.5c0-17.6 14.3-31.9 31.9-31.9 17.6 0 31.9 14.3 31.9 31.9V704.4c0 35.1-28.7 63.8-63.8 63.8H128.8c-35.1 0-63.8-28.7-63.8-63.8V66c0-35.1 28.7-63.8 63.8-63.8h539.3c17.6-0.1 31.9 14.2 31.9 31.8Z"  horiz-adv-x="1024" />

    
    <glyph glyph-name="home1" unicode="&#58882;" d="M128 341.333h42.667V0a42.667 42.667 0 0 1 42.666-42.667h597.334A42.667 42.667 0 0 1 853.333 0V341.333H896a42.667 42.667 0 0 1 30.165 72.832l-384 384a42.624 42.624 0 0 1-60.33 0l-384-384A42.667 42.667 0 0 1 128 341.333z m469.333-298.666H426.667V213.333h170.666v-170.666zM512 707.669l283.69-283.69A42.752 42.752 0 0 1 768 384v-341.333h-85.333V256A42.667 42.667 0 0 1 640 298.667H384A42.667 42.667 0 0 1 341.333 256v-213.333H256V384c0 18.304-11.52 33.877-27.69 39.979L512 707.669z"  horiz-adv-x="1024" />

    
    <glyph glyph-name="xia1" unicode="&#58889;" d="M510.293333 68.266667c-18.773333 0-35.84 6.826667-47.786666 20.48l-256 256c-13.653333 13.653333-13.653333 34.133333 0 47.786666 13.653333 13.653333 34.133333 13.653333 47.786666 0l256-256 256 256c13.653333 13.653333 34.133333 13.653333 47.786667 0 13.653333-13.653333 13.653333-34.133333 0-47.786666l-256-256c-11.946667-13.653333-29.013333-20.48-47.786667-20.48zM510.293333 78.506667c-18.773333 0-34.133333 15.36-34.133333 34.133333L477.866667 791.893333c0 18.773333 15.36 34.133333 34.133333 34.133334s34.133333-15.36 34.133333-34.133334l-1.706666-679.253333c0-18.773333-15.36-34.133333-34.133334-34.133333zM791.893333-47.786667l-563.2 1.706667c-18.773333 0-34.133333 15.36-34.133333 34.133333s15.36 34.133333 34.133333 34.133334l563.2-1.706667c18.773333 0 34.133333-15.36 34.133334-34.133333s-15.36-34.133333-34.133334-34.133334z"  horiz-adv-x="1024" />

    
    <glyph glyph-name="xiugai1" unicode="&#58967;" d="M339.097 341.59c-0.61-0.763-1.231-1.602-1.498-2.592l-47.092-172.647c-2.742-10.056 0.064-20.924 7.504-28.542 5.574-5.408 12.912-8.404 20.708-8.404 2.59 0 5.18 0.303 7.72 0.989l171.466 46.75c0.253 0 0.38-0.255 0.584-0.255 1.98 0 3.91 0.736 5.383 2.236l458.447 458.394c13.635 13.635 21.1 32.198 21.1 52.411 0 22.879-9.725 45.783-26.713 62.746L913.41 796.047c-16.987 17.013-39.918 26.74-62.772 26.74-20.212 0-38.775-7.466-52.46-21.052L339.782 343.162c-0.482-0.43-0.33-1.065-0.685-1.573m578.377 340.799l-45.53-45.505-73.843 75.011 44.895 44.87c7.084 7.135 20.873 6.095 28.998-2.057l43.297-43.371c4.545-4.545 7.134-10.537 7.134-16.455 0-4.9-1.778-9.318-4.951-12.493m-496.84-348.01l330.795 330.844 73.842-75.061-330.16-330.186-74.477 74.402zM360.35 200.251l23.894 87.758 63.762-63.763-87.656-23.995z m586.172 300.474c-17.368 0-31.615-14.118-31.664-31.69V41.67c0-22.42-18.182-40.602-40.63-40.602H151.252c-22.397 0-40.693 18.182-40.693 40.602V739.217c0 22.423 18.271 40.656 40.693 40.656h465.644c17.42 0 31.589 14.169 31.589 31.613 0 17.42-14.17 31.615-31.589 31.615H146.44c-54.659 0-99.11-44.438-99.11-99.11v-707.145c0-54.696 44.451-99.083 99.11-99.083h732.563c54.672 0 99.135 44.387 99.135 99.083V469.214c-0.103 17.394-14.296 31.512-31.615 31.512"  horiz-adv-x="1024" />

    
    <glyph glyph-name="huadong1" unicode="&#59029;" d="M222.99 707.73c-28.88 8.84-25.35-1.18-30.65-24.17-34.19-162.11-27.71-323.63 18.86-483.37 2.36-8.25 4.13-17.1 4.13-25.35 0-9.43-4.13-17.69-14.14-19.46-10.02-1.77-17.69 4.13-21.22 12.38-4.72 10.02-7.66 21.22-10.61 31.84-43.03 160.34-50.11 321.27-17.69 483.96 5.31 26.52 7.67 41.85-28.88 48.34-7.66 1.18-24.76 2.36-24.76 7.66-0.59 4.72 12.38 18.28 18.28 22.99 92.55 93.73 63.08 97.85 124.38-18.87 1.18-2.36 2.35-4.13 3.54-6.48 10.6-21.22 15.31-43.03-21.24-29.47z m0 0M921.11 195.64c-14.6 78.03-39.86 152.7-66.24 226.8-13.48 38.18-43.23 52.77-81.96 39.3-15.16-5.61-21.9-2.81-33.12 7.3-29.75 27.51-56.7 28.06-89.26 5.05-7.3-5.05-12.91-14.59-24.14-6.17-35.93 25.82-66.81 14.03-98.24-19.09-23.02 57.26-43.79 111.15-66.81 163.36-16.84 39.3-51.09 53.9-86.45 40.42-34.25-13.48-48.84-48.84-36.49-89.26 2.24-7.86 5.62-15.72 8.42-23.58l90.95-234.1c5.05-12.91 11.23-24.14 2.81-40.42-49.4-93.75-28.07-192 54.45-257.68 87.58-69.05 182.45-90.95 289.68-51.09 107.77 40.42 157.74 124.63 136.4 239.16zM759.43-20.5c-121.82-37.62-252.07 15.72-302.03 124.06-20.21 43.23-28.63 88.14 3.37 140.91 12.35-31.44 20.77-55.02 30.31-78.04 4.49-10.1 6.74-26.95 23.02-20.21 16.28 6.18 7.86 20.21 3.37 30.88-40.98 107.22-82.53 214.45-124.07 321.68-8.42 22.45-17.41 44.91-25.82 66.81-10.11 25.27-9.55 48.84 19.09 60.07 27.51 11.23 42.1-7.86 51.09-30.31 29.75-72.98 58.95-146.52 88.7-219.51 3.37-7.86 6.18-15.72 10.11-23.02 3.37-6.74 8.98-11.79 17.4-8.98 7.86 2.25 10.67 9.55 9.55 16.84-2.81 16.84-6.18 33.12-8.98 49.41-2.81 18.52 2.25 34.24 21.33 40.42 20.21 6.74 34.24-2.24 43.79-20.77 2.81-5.62 4.49-11.23 6.74-16.84 4.49-9.55 7.3-22.45 21.33-19.65 12.35 2.81 10.11 14.03 8.98 23.58-1.68 22.45 7.86 38.17 29.76 42.1 21.89 4.49 35.93-7.3 44.35-27.51 6.74-16.28 13.48-33.12 20.21-49.96 3.37-7.86 7.86-16.28 18.53-12.35 10.1 3.37 9.54 12.35 6.74 20.77-6.18 17.96-18.52 37.61 11.79 45.47 28.07 6.74 37.61-12.91 44.91-34.81 21.9-64.56 43.23-129.68 57.83-196.49 24.67-113.39-19.68-190.31-131.4-224.55z m0 0"  horiz-adv-x="1024" />

    
    <glyph glyph-name="shezhi1" unicode="&#59429;" d="M683.12 67.47L519.76 230.84c-87.54-31.51-187.36-9.97-253.65 56.37-70.76 70.73-90.57 179.66-49.32 271.04l43.26 7.91 123.6-123.6 69.82 69.82-123.6 123.58 7.91 43.26c91.38 41.28 200.31 21.44 271.04-49.29 66.32-66.29 87.88-166.16 56.37-253.65L828.52 212.9v-37.81l-107.6-107.62h-37.8zM515.16 286.6l29.9-5.46 156.97-156.97L771.81 194 614.87 350.96l-5.46 29.9c32.14 71.25 16.71 156.13-38.41 211.25-45.46 45.43-111.1 63.99-172.66 50.97l111.83-111.8v-37.81L402.55 385.85h-37.81L252.92 497.67c-12.9-61.57 5.56-127.23 50.99-172.66 55.12-55.14 139.97-70.55 211.25-38.41z"  horiz-adv-x="1024" />

    


  </font>
</defs>
</svg>
